<?xml version="1.0" encoding="UTF-8" standalone="no"?>
<!-- Created with Inkscape (http://www.inkscape.org/) -->

<svg
   width="210mm"
   height="210mm"
   viewBox="0 0 210 210"
   version="1.1"
   id="svg5"
   inkscape:version="1.1.1 (c3084ef, 2021-09-22)"
   sodipodi:docname="candida.svg"
   xmlns:inkscape="http://www.inkscape.org/namespaces/inkscape"
   xmlns:sodipodi="http://sodipodi.sourceforge.net/DTD/sodipodi-0.dtd"
   xmlns:xlink="http://www.w3.org/1999/xlink"
   xmlns="http://www.w3.org/2000/svg"
   xmlns:svg="http://www.w3.org/2000/svg">
  <sodipodi:namedview
     id="namedview7"
     pagecolor="#ffffff"
     bordercolor="#111111"
     borderopacity="1"
     inkscape:pageshadow="0"
     inkscape:pageopacity="0"
     inkscape:pagecheckerboard="1"
     inkscape:document-units="mm"
     showgrid="false"
     inkscape:zoom="0.58747568"
     inkscape:cx="400.01656"
     inkscape:cy="365.9726"
     inkscape:window-width="1368"
     inkscape:window-height="1024"
     inkscape:window-x="0"
     inkscape:window-y="0"
     inkscape:window-maximized="0"
     inkscape:current-layer="layer1"
     height="210mm" />
  <defs
     id="defs2">
    <linearGradient
       inkscape:collect="always"
       id="linearGradient11770">
      <stop
         style="stop-color:#a58cca;stop-opacity:1;"
         offset="0"
         id="stop11766" />
      <stop
         style="stop-color:#a58cca;stop-opacity:0;"
         offset="1"
         id="stop11768" />
    </linearGradient>
    <linearGradient
       inkscape:collect="always"
       id="linearGradient10782">
      <stop
         style="stop-color:#a58cca;stop-opacity:1;"
         offset="0"
         id="stop10778" />
      <stop
         style="stop-color:#a58cca;stop-opacity:0;"
         offset="1"
         id="stop10780" />
    </linearGradient>
    <linearGradient
       inkscape:collect="always"
       id="linearGradient8555">
      <stop
         style="stop-color:#a0c1d3;stop-opacity:1;"
         offset="0"
         id="stop8551" />
      <stop
         style="stop-color:#a0c1d3;stop-opacity:0.00706714"
         offset="1"
         id="stop8553" />
    </linearGradient>
    <linearGradient
       inkscape:collect="always"
       xlink:href="#linearGradient8555"
       id="linearGradient8736"
       gradientUnits="userSpaceOnUse"
       x1="78.12973"
       y1="71.708107"
       x2="135.92433"
       y2="191.57838"
       gradientTransform="matrix(1.1174627,0,0,1.0977338,19.364231,-88.590768)" />
    <linearGradient
       inkscape:collect="always"
       xlink:href="#linearGradient10782"
       id="linearGradient11103"
       gradientUnits="userSpaceOnUse"
       x1="198"
       y1="97.394592"
       x2="230.64325"
       y2="170.17297"
       gradientTransform="matrix(0.96524096,0.49313782,-0.48849339,0.97441815,56.802181,-60.944961)" />
    <linearGradient
       inkscape:collect="always"
       xlink:href="#linearGradient11770"
       id="linearGradient11887"
       gradientUnits="userSpaceOnUse"
       x1="29.432432"
       y1="82.945946"
       x2="58.329727"
       y2="133.78378"
       gradientTransform="matrix(0.96524096,0.49313782,-0.48849339,0.97441815,53.958542,-55.273159)" />
  </defs>
  <g
     inkscape:label="Ebene 1"
     inkscape:groupmode="layer"
     id="layer1">
    <ellipse
       style="opacity:1;fill:#6e6e6e;fill-opacity:1;fill-rule:evenodd;stroke:none;stroke-width:0.426408;stroke-miterlimit:4;stroke-dasharray:none;stroke-opacity:1"
       id="path31"
       cx="138.31818"
       cy="46.613483"
       rx="106.14386"
       ry="82.828453"
       transform="matrix(0.89051226,0.45495925,-0.44815593,0.8939554,0,0)" />
    <ellipse
       style="fill:url(#linearGradient8736);fill-opacity:1;fill-rule:evenodd;stroke:none;stroke-width:0.426408;stroke-miterlimit:4;stroke-dasharray:none;stroke-opacity:1"
       id="path31-5"
       cx="138.06587"
       cy="46.519554"
       rx="106.14386"
       ry="82.828453"
       transform="matrix(0.89051226,0.45495925,-0.44815593,0.8939554,0,0)" />
    <path
       style="fill:#968fa1;fill-opacity:1;stroke:#000000;stroke-width:0.287586px;stroke-linecap:butt;stroke-linejoin:miter;stroke-opacity:1"
       d="m 41.849373,40.065137 c -5.453426,4.810407 -11.78045,7.615915 -16.629668,12.463928 -1.867719,1.867253 -3.157876,5.004901 -4.43768,7.557779 -1.100829,2.195871 -3.121535,4.910139 -3.659744,7.300244 -0.957557,4.252369 0.317075,17.092016 2.749797,20.399825 0.710321,0.965823 -0.461477,1.126298 0.248842,2.092122 0.957486,1.301915 2.080227,2.828516 3.086634,4.196943 0.325356,0.442408 0.18489,1.128289 0.51025,1.570687 0.848186,1.153287 4.961268,3.189687 6.453533,3.95208 2.443872,1.248575 5.412443,3.424275 8.009428,3.436995 0.51779,0.002 1.031809,0.78917 1.549604,0.7917 1.560824,0.008 2.929906,-0.247 4.661378,-0.23852 0.192982,9.2e-4 0.344359,0.17593 0.516535,0.2639 0.431494,0.002 0.869569,0.0822 1.294477,0.007 1.048599,-0.18717 3.649271,-0.77324 4.406258,-1.02386 0.9515,-0.31502 1.51307,-1.10095 2.595243,-1.29411 2.685488,-0.47932 5.370672,-1.20159 7.779442,-2.575496 3.621799,-2.065799 5.012201,-6.31146 7.810869,-9.109432 1.266599,-1.266286 3.344727,-3.884987 3.653458,-5.993458 0.174642,-1.192719 -0.939811,-4.21911 -1.269339,-5.233484 -0.18331,-0.564263 0.47693,-2.510281 0.27398,-3.135017 -0.06014,-0.185106 -0.4564,-0.07878 -0.516532,-0.263895 -0.851361,-2.620715 0.03712,-7.717623 0.05028,-10.454291 0.01966,-4.087403 -3.888976,-7.607533 -5.644162,-10.743566 -0.862891,-1.541953 -1.007822,-3.562776 -2.047283,-4.976146 -3.959535,-5.383844 -8.218848,-8.512315 -14.711799,-9.481199 -0.572692,-0.08546 -0.97691,-0.706229 -1.549602,-0.791686 -2.488366,-0.371316 -3.586676,-0.315722 -5.184201,1.281404 z"
       id="path9144" />
    <path
       style="fill:url(#linearGradient11887);fill-opacity:1;stroke:#000000;stroke-width:0.287586px;stroke-linecap:butt;stroke-linejoin:miter;stroke-opacity:1"
       d="m 41.849381,40.065123 c -5.453426,4.810407 -11.78045,7.615914 -16.629666,12.463923 -1.867729,1.867272 -3.157886,5.00492 -4.43769,7.557798 -1.100829,2.195871 -3.121535,4.910139 -3.659744,7.300244 -0.957557,4.252369 0.317075,17.092016 2.749797,20.399825 0.710321,0.965823 -0.461477,1.126298 0.248842,2.092122 0.957486,1.301915 2.080227,2.828516 3.086634,4.196943 0.325356,0.442408 0.18489,1.128289 0.51025,1.570687 0.848186,1.153287 4.961268,3.189687 6.453533,3.95208 2.443872,1.248575 5.412443,3.424275 8.009428,3.436995 0.51779,0.002 1.031809,0.78917 1.549604,0.7917 1.560824,0.008 2.929906,-0.247 4.661378,-0.23852 0.192982,9.2e-4 0.344359,0.17593 0.516535,0.2639 0.431494,0.002 0.869569,0.0822 1.294477,0.007 1.048599,-0.18717 3.649271,-0.77324 4.406258,-1.02386 0.9515,-0.31502 1.51307,-1.10095 2.595243,-1.29411 2.685488,-0.47932 5.370672,-1.20159 7.779442,-2.575496 3.621799,-2.065799 5.012201,-6.31146 7.810869,-9.109432 1.266599,-1.266286 3.344727,-3.884987 3.653458,-5.993458 0.174642,-1.192719 -0.939811,-4.21911 -1.269339,-5.233484 -0.183305,-0.564273 0.476937,-2.510295 0.273987,-3.135032 -0.06014,-0.185106 -0.456399,-0.07878 -0.516532,-0.263894 -0.85136,-2.620715 0.03712,-7.717623 0.05028,-10.454291 C 71.006085,60.68936 67.097447,57.16923 65.342262,54.033196 64.479372,52.491243 64.334441,50.47042 63.29498,49.05705 59.335444,43.673206 55.07613,40.544735 48.583181,39.575851 48.010488,39.490391 47.60627,38.869623 47.033579,38.784166 44.545213,38.412849 43.446903,38.468444 41.849378,40.06557 Z"
       id="path9144-6" />
    <path
       style="fill:#8c8696;fill-opacity:1;stroke:#000000;stroke-width:0.287586px;stroke-linecap:butt;stroke-linejoin:miter;stroke-opacity:1"
       d="m 201.46413,113.83213 c 0.43091,3.63259 -1.65791,5.99017 -2.63296,9.13481 -1.39028,4.4838 -3.6433,8.56169 -5.75729,12.77856 -0.62562,1.24795 -1.7816,2.7963 -2.09127,4.17155 -0.0605,0.26866 0.31561,0.51671 0.25511,0.78534 -0.25665,1.13977 -1.3118,1.98892 -1.56845,3.12867 -0.0605,0.26867 0.31562,0.51669 0.25512,0.78535 -0.17111,0.75984 -0.93278,1.31493 -1.04563,2.08579 -0.19498,1.33153 -0.15705,2.28228 -0.5354,3.65646 -1.21528,4.41381 -5.22939,10.43129 -7.31947,14.60047 -2.40208,4.79151 -7.74242,7.67861 -10.15728,12.49565 -1.0035,2.00172 -1.78784,2.3616 0.24254,3.39891 0.34436,0.17594 0.66635,0.6492 1.03308,0.52779 0.36673,-0.12141 0.15609,-0.92148 0.52281,-1.04288 0.18337,-0.0607 0.33317,0.32459 0.51655,0.26389 0.99843,-0.33056 1.60307,-2.27034 2.60153,-2.60088 0.18335,-0.0607 0.33316,0.3246 0.51653,0.26388 0.36672,-0.1214 0.15609,-0.92147 0.52281,-1.04288 1.6096,-0.53289 -0.86831,1.62733 1.29448,0.007 0.31495,-0.23606 0.97477,-1.19252 1.30077,-1.30044 0.18336,-0.0607 0.33317,0.32459 0.51652,0.26389 0.36674,-0.12142 0.15611,-0.92149 0.52283,-1.04291 0.18336,-0.0607 0.34853,0.35973 0.51654,0.26391 1.76,0.4355 0.92334,-1.34308 1.56217,-1.82189 0.97694,-0.73222 2.32407,-0.95325 3.37319,-1.55164 1.28465,-0.73274 1.27603,-1.84486 2.60153,-2.60087 0.16797,-0.0959 0.33317,0.32459 0.51653,0.26389 0.35962,-0.11907 0.47047,-1.32918 0.78424,-1.56434 1.60842,-1.20551 2.60734,-2.39108 3.9023,-3.90133 0.65537,-0.76435 1.72243,-1.28572 2.34009,-2.07943 1.28787,-1.65492 1.64028,-4.03868 2.87551,-5.73591 3.5176,-4.83315 6.77124,-10.89731 8.36511,-16.68622 0.20671,-0.75076 1.04189,-1.30656 1.04564,-2.08577 9e-4,-0.19482 -0.54475,-0.0712 -0.51653,-0.26389 0.0846,-0.57814 0.65591,-0.99447 0.78423,-1.56435 0.33515,-1.48831 -0.195,-3.72375 0.0251,-5.22714 0.47223,-3.22514 0.12762,-6.23781 -0.98908,-9.67529 -0.0601,-0.18511 -0.45639,-0.0787 -0.51652,-0.2639 -0.55113,-1.69652 3.6e-4,-3.95341 -1.00793,-5.75494 -1.03483,-1.84895 -1.90047,-1.70719 -2.57638,-2.62626 -1.65475,-2.24999 -2.43406,-1.42959 -2.07871,1.558 z"
       id="path10598" />
    <path
       style="opacity:0.378613;fill:url(#linearGradient11103);fill-opacity:1;stroke:#000000;stroke-width:0.287586px;stroke-linecap:butt;stroke-linejoin:miter;stroke-opacity:1"
       d="m 201.46413,113.83213 c 0.43091,3.63259 -1.65791,5.99017 -2.63296,9.13481 -1.39028,4.4838 -3.6433,8.56169 -5.75729,12.77856 -0.62562,1.24795 -1.7816,2.7963 -2.09127,4.17155 -0.0605,0.26866 0.31561,0.51671 0.25511,0.78534 -0.25665,1.13977 -1.3118,1.98892 -1.56845,3.12867 -0.0605,0.26867 0.31562,0.51669 0.25512,0.78535 -0.17111,0.75984 -0.93278,1.31493 -1.04563,2.08579 -0.19498,1.33153 -0.15705,2.28228 -0.5354,3.65646 -1.21528,4.41381 -5.22939,10.43129 -7.31947,14.60047 -2.40208,4.79151 -7.74242,7.67861 -10.15728,12.49565 -1.0035,2.00172 -1.78784,2.3616 0.24254,3.39891 0.34436,0.17594 0.66635,0.6492 1.03308,0.52779 0.36673,-0.12141 0.15609,-0.92148 0.52281,-1.04288 0.18337,-0.0607 0.33317,0.32459 0.51655,0.26389 0.99843,-0.33056 1.60307,-2.27034 2.60153,-2.60088 0.18335,-0.0607 0.33316,0.3246 0.51653,0.26388 0.36672,-0.1214 0.15609,-0.92147 0.52281,-1.04288 1.6096,-0.53289 -0.86831,1.62733 1.29448,0.007 0.31495,-0.23606 0.97477,-1.19252 1.30077,-1.30044 0.18336,-0.0607 0.33317,0.32459 0.51652,0.26389 0.36674,-0.12142 0.15611,-0.92149 0.52283,-1.04291 0.18336,-0.0607 0.34853,0.35973 0.51654,0.26391 1.76,0.4355 0.92334,-1.34308 1.56217,-1.82189 0.97694,-0.73222 2.32407,-0.95325 3.37319,-1.55164 1.28465,-0.73274 1.27603,-1.84486 2.60153,-2.60087 0.16797,-0.0959 0.33317,0.32459 0.51653,0.26389 0.35962,-0.11907 0.47047,-1.32918 0.78424,-1.56434 1.60842,-1.20551 2.60734,-2.39108 3.9023,-3.90133 0.65537,-0.76435 1.72243,-1.28572 2.34009,-2.07943 1.28787,-1.65492 1.64028,-4.03868 2.87551,-5.73591 3.5176,-4.83315 6.77124,-10.89731 8.36511,-16.68622 0.20671,-0.75076 1.04189,-1.30656 1.04564,-2.08577 9e-4,-0.19482 -0.54475,-0.0712 -0.51653,-0.26389 0.0846,-0.57814 0.65591,-0.99447 0.78423,-1.56435 0.33515,-1.48831 -0.195,-3.72375 0.0251,-5.22714 0.47223,-3.22514 0.12762,-6.23781 -0.98908,-9.67529 -0.0601,-0.18511 -0.45639,-0.0787 -0.51652,-0.2639 -0.55113,-1.69652 3.6e-4,-3.95341 -1.00793,-5.75494 -1.03483,-1.84895 -1.90047,-1.70719 -2.57638,-2.62626 -1.65475,-2.24999 -2.43406,-1.42959 -2.07871,1.558 z"
       id="path10598-7" />
    <path
       style="fill:#a58cca;fill-opacity:1;stroke:#000000;stroke-width:0.287586px;stroke-linecap:butt;stroke-linejoin:miter;stroke-opacity:1"
       d="m 118.84701,18.488043 c -5.95157,-3.025894 -12.7185,-5.812344 -19.130638,-5.843776 -2.871733,-0.01408 -5.648436,-1.073141 -8.538528,-1.087309 -2.394986,-0.01174 -4.586671,0.719219 -6.995214,1.011165 -1.921807,0.232948 -12.05512,2.67517 -11.158914,5.433938 0.343749,1.058151 5.715546,2.920051 6.714945,3.430641 6.628835,3.386647 14.663081,4.515054 21.725879,4.549675 0.51778,0.0025 1.03181,0.789147 1.54959,0.791686 1.66831,0.0082 3.27086,0.538758 4.91651,0.546825 1.98028,0.0097 3.1422,-1.291412 5.18421,-1.281405 0.89276,0.0044 0.14543,0.867546 1.29447,0.0063 0.99921,-0.748916 1.85897,-4.094658 2.86922,-4.429115 0.18337,-0.06071 0.33317,0.324602 0.51653,0.263894 1.11536,-0.369253 0.79174,-2.237084 1.05194,-3.392567 z"
       id="path10633" />
  </g>
</svg>
